    <svg
      width="1em"
      height="1em"
      viewBox="0 0 21 24"
      xmlns="http://www.w3.org/2000/svg"

    >
      <g
        stroke="currentColor"
        strokeWidth="0.968"
        fill="none"
        fillRule="evenodd"
        strokeLinecap="round"
        strokeLinejoin="round"
      >
        <path d="M2.935 22.742V2.419M18.419 2.419v20.323M1 2.419h19.355M1 22.742h19.355M16 15.968h4.355M1 15.968h4.839M16.484 9.194h3.871M1 9.194h3.871M17.452 2.42V.967a.484.484 0 00-.484-.484h-2.903a.484.484 0 00-.484.484v1.451M10.677 15.484v1.451M8.742 16.935V15.12a3.262 3.262 0 01-1.936-3.023 3.871 3.871 0 017.742 0 3.26 3.26 0 01-1.935 3.022v1.816M11.887 11.613c.134 0 .242.108.242.242M11.645 11.855c0-.134.108-.242.242-.242M11.887 12.097a.242.242 0 01-.242-.242M12.129 11.855a.242.242 0 01-.242.242M9.468 11.613c.133 0 .242.108.242.242M9.226 11.855c0-.134.108-.242.242-.242M9.468 12.097a.242.242 0 01-.242-.242M9.71 11.855a.242.242 0 01-.242.242" />
      </g>
    </svg>