<svg
        width="33"
        height="38"
        viewBox="0 0 33 38"
        fill="none"
        xmlns="http://www.w3.org/2000/svg"
        aria-hidden="true"
        focusable="false"

>
    <g clipPath="url(#clip0_130_10921)">
        <path
                d="M2.53377 24.3021C2.02448 23.8666 1.70714 23.2481 1.65039 22.5804C1.57716 21.7016 1.96211 20.8471 2.66886 20.3196L5.61039 17.5079L7.75859 12.7334C8.16234 11.8391 9.02018 11.2349 9.99817 11.156L17.5765 10.5282C18.4532 10.4553 19.3104 10.8147 19.873 11.4911L24.0886 15.9676L29.1625 17.4165C30.6445 17.731 31.5991 19.1776 31.3054 20.664C31.0643 21.8766 30.049 22.7828 28.8168 22.885L27.9056 22.9605"
                stroke="black"
                strokeWidth="1.04348"
                strokeLinecap="round"
                strokeLinejoin="round"
        />
        <path
                d="M22.7934 23.3843L12.4497 24.2425"
                stroke="black"
                strokeWidth="1.04348"
                strokeLinecap="round"
                strokeLinejoin="round"
        />
        <path
                fillRule="evenodd"
                clipRule="evenodd"
                d="M22.7655 24.0518C22.8868 25.5096 24.1668 26.593 25.6246 26.4719C27.0823 26.3508 28.1659 25.071 28.045 23.6132C27.9241 22.1554 26.6444 21.0717 25.1866 21.1924C24.4863 21.2504 23.8378 21.5843 23.3837 22.1206C22.9296 22.6569 22.7073 23.3516 22.7655 24.0518Z"
                stroke="black"
                strokeWidth="1.04348"
                strokeLinecap="round"
                strokeLinejoin="round"
        />
        <path
                fillRule="evenodd"
                clipRule="evenodd"
                d="M2.22122 25.1564C2.22122 24.4249 2.81418 23.832 3.54564 23.832H4.20784C4.55632 23.8327 4.85833 23.5908 4.93362 23.2506C5.2083 22.0453 6.28009 21.1903 7.51623 21.1903C8.75237 21.1903 9.82416 22.0453 10.0988 23.2506C10.176 23.5902 10.4777 23.8314 10.8259 23.832H11.4882C12.2196 23.832 12.8126 24.4249 12.8126 25.1564C12.8126 25.8878 12.2196 26.4808 11.4882 26.4808H3.54166C2.81176 26.4786 2.22122 25.8863 2.22122 25.1564Z"
                stroke="black"
                strokeWidth="1.04348"
                strokeLinecap="round"
                strokeLinejoin="round"
        />
        <path
                fillRule="evenodd"
                clipRule="evenodd"
                d="M20.1829 16.9569L17.6917 13.8141C17.3935 13.4422 16.9296 13.2435 16.4547 13.2843L12.5954 13.5995C12.4202 13.614 12.258 13.6975 12.1445 13.8317C12.031 13.9658 11.9754 14.1396 11.9901 14.3147L12.2086 16.9542C12.2231 17.1294 12.3066 17.2916 12.4408 17.4051C12.5749 17.5186 12.7487 17.5742 12.9238 17.5595L20.1829 16.9569Z"
                stroke="black"
                strokeWidth="1.04348"
                strokeLinecap="round"
                strokeLinejoin="round"
        />
    </g>
    <defs>
        <clipPath>
            <rect width="33" height="38" fill="white"/>
        </clipPath>
    </defs>
</svg>